<svg width="124" height="124" viewBox="0 0 124 124" fill="none" xmlns="http://www.w3.org/2000/svg">
  <path d="M123.336 82.58V0L41.1111 0V82.58H123.336Z" fill="url(#paint0_linear_7_1216)"/>
  <path d="M0 41.291L0 123.871H82.225V41.291H0Z" fill="url(#paint1_linear_7_1216)"/>
  <path d="M20.665 19.424L20.665 102.004H102.89V19.424H20.665Z" fill="white"/>
  <path d="M23.165 21.924L23.165 99.504H100.39V21.924H23.165Z" stroke="#0339E1" stroke-width="5"/>
  <path
    d="M63.8481 77.839C60.1387 77.839 56.7761 77.0417 53.7601 75.447C50.7787 73.8177 48.4214 71.5817 46.6881 68.739C44.9894 65.8617 44.1401 62.6204 44.1401 59.015C44.1401 55.4097 44.9894 52.1857 46.6881 49.343C48.4214 46.4657 50.7787 44.2297 53.7601 42.635C56.7761 41.0057 60.1561 40.191 63.9001 40.191C67.0547 40.191 69.8974 40.7457 72.4281 41.855C74.9934 42.9644 77.1427 44.559 78.8761 46.639L73.4681 51.631C71.0067 48.7884 67.9561 47.367 64.3161 47.367C62.0627 47.367 60.0521 47.8697 58.2841 48.875C56.5161 49.8457 55.1294 51.215 54.1241 52.983C53.1534 54.751 52.6681 56.7617 52.6681 59.015C52.6681 61.2684 53.1534 63.279 54.1241 65.047C55.1294 66.815 56.5161 68.2017 58.2841 69.207C60.0521 70.1777 62.0627 70.663 64.3161 70.663C67.9561 70.663 71.0067 69.2244 73.4681 66.347L78.8761 71.339C77.1427 73.4537 74.9934 75.0657 72.4281 76.175C69.8627 77.2844 67.0027 77.839 63.8481 77.839Z"
    fill="#0339E1"/>
  <defs>
    <linearGradient id="paint0_linear_7_1216" x1="112.236" y1="12.3044" x2="47.437" y2="71.0712"
                    gradientUnits="userSpaceOnUse">
      <stop stop-color="#C4D0FF"/>
      <stop offset="1" stop-color="#637FEC"/>
    </linearGradient>
    <linearGradient id="paint1_linear_7_1216" x1="11.1004" y1="111.567" x2="75.8991" y2="52.7999"
                    gradientUnits="userSpaceOnUse">
      <stop stop-color="#C4D0FF"/>
      <stop offset="1" stop-color="#637FEC"/>
    </linearGradient>
  </defs>
</svg>
